#!OML:ASF F:\VICON\USERDATA\INSTALL\rory3\rory3.ASF
:FULLY-SPECIFIED
:DEGREES
271
root 5.3697 17.7488 20.3872 -1.66887 1.08714 0.042715
lowerback 10.2409 -1.39992 -3.00107
upperback 0.726189 -2.079 2.46381
thorax -4.78635 -0.941198 4.56836
lowerneck -17.5868 -1.908 -1.76951
upperneck 15.2381 -2.2015 0.299852
head 7.60938 -1.12524 0.132955
rclavicle -1.09332e-014 -1.07344e-014
rhumerus -37.2019 -28.6898 -70.6568
rradius 21.1012
rwrist 9.86951
rhand -19.5664 22.5176
rfingers 7.12502
rthumb 6.75844 -7.35458
lclavicle -1.09332e-014 -1.07344e-014
lhumerus -23.301 -0.442742 81.2207
lradius 33.8801
lwrist 5.59405
lhand -26.017 29.318
lfingers 7.12502
lthumb 0.529305 59.2971
rfemur -27.9809 5.05346 22.7693
rtibia 26.1828
rfoot 0.622717 -7.03061
rtoes 3.80095
lfemur 15.5309 -3.92845 -24.3071
ltibia 27.8736
lfoot -6.80244 -9.56253
ltoes -19.6513
272
root 5.34442 17.7632 20.5898 -1.80716 0.996854 -0.227796
lowerback 10.4728 -1.34156 -2.91238
upperback 0.617265 -1.99017 2.56145
thorax -5.03896 -0.889755 4.62188
lowerneck -17.071 -1.93502 -1.74677
upperneck 15.0687 -2.24973 0.274527
head 7.46466 -1.15049 0.120956
rclavicle 1.36167e-014 -8.74653e-015
rhumerus -37.6182 -29.3533 -70.0506
rradius 20.7915
rwrist 10.5138
rhand -19.6124 23.3109
rfingers 7.12502
rthumb 6.71397 -6.56267
lclavicle 1.36167e-014 -8.74653e-015
lhumerus -23.7585 -0.320296 81.4838
lradius 33.349
lwrist 6.11451
lhand -25.9362 29.3563
lfingers 7.12502
lthumb 0.607327 59.3352
rfemur -27.617 5.09111 23.2984
rtibia 27.0009
rfoot 0.491432 -6.56032
rtoes 3.12219
lfemur 14.3063 -3.74976 -23.7366
ltibia 30.3752
lfoot -4.40527 -10.9185
ltoes -12.2334
273
root 5.31604 17.7646 20.7932 -1.88949 1.13674 -0.81497
lowerback 10.4515 -1.4169 -2.54226
upperback 0.664974 -2.03457 2.78929
thorax -4.97702 -0.920059 4.65632
lowerneck -16.8781 -1.89779 -1.73197
upperneck 14.8957 -2.19982 0.241034
head 7.37355 -1.12921 0.115855
rclavicle -4.82053e-015 5.56597e-015
rhumerus -37.6063 -29.8356 -69.6989
rradius 20.4855
rwrist 10.8246
rhand -18.5168 23.2801
rfingers 7.12502
rthumb 7.77154 -6.55707
lclavicle -4.82053e-015 5.56597e-015
lhumerus -23.8935 -0.0733159 81.7463
lradius 32.7481
lwrist 6.43902
lhand -25.861 27.9638
lfingers 7.12502
lthumb 0.679963 57.9424
rfemur -27.4004 5.02754 24.1669
rtibia 27.985
rfoot -0.348766 -5.79594
rtoes 5.37838
lfemur 13.4651 -4.06349 -22.737
ltibia 32.6635
lfoot -0.938423 -12.8478
ltoes -15.8275
274
root 5.28828 17.8195 21.0154 -2.07635 1.25189 -0.84791
lowerback 10.3686 -1.4592 -2.78202
upperback 0.791007 -2.11422 2.8786
thorax -4.77848 -0.96081 4.89087
lowerneck -16.8832 -1.77803 -1.59714
upperneck 14.8109 -2.04679 0.11558
head 7.3422 -1.06015 0.0703542
rclavicle 2.43511e-014 -9.54166e-015
rhumerus -37.5512 -29.8232 -69.6737
rradius 20.5804
rwrist 10.9165
rhand -18.1696 22.6937
rfingers 7.12502
rthumb 8.10662 -7.13085
lclavicle 2.43511e-014 -9.54166e-015
lhumerus -24.1041 0.151653 81.9475
lradius 32.4019
lwrist 6.357
lhand -26.6432 27.5702
lfingers 7.12502
lthumb -0.0754656 57.5499
rfemur -26.8239 4.96242 24.4225
rtibia 28.7726
rfoot -1.00854 -5.1786
rtoes 6.99962
lfemur 11.9589 -3.3673 -22.2784
ltibia 34.8809
lfoot 2.92977 -14.5739
ltoes -16.6192
275
root 5.26882 17.8109 21.2305 -2.38264 1.27409 -0.696793
lowerback 10.3527 -1.44652 -3.06052
upperback 0.872737 -2.13161 2.84618
thorax -4.67303 -0.968431 5.01431
lowerneck -16.6915 -1.75438 -1.59761
upperneck 14.8768 -2.01726 0.108708
head 7.33063 -1.04726 0.0728015
rclavicle -2.70844e-014 1.35174e-014
rhumerus -37.7614 -29.9815 -69.4428
rradius 20.5732
rwrist 11.1546
rhand -17.9636 22.2804
rfingers 7.12502
rthumb 8.30542 -7.53628
lclavicle -2.70844e-014 1.35174e-014
lhumerus -24.4497 0.283165 82.1401
lradius 32.1145
lwrist 6.33027
lhand -27.0327 29.1433
lfingers 7.12502
lthumb -0.451628 59.1226
rfemur -26.1759 5.02346 24.4799
rtibia 29.5252
rfoot -1.14405 -5.26684
rtoes 7.96456
lfemur 11.8966 -3.51908 -22.188
ltibia 36.962
lfoot 5.33492 -15.4397
ltoes -16.8189
276
root 5.24861 17.825 21.4278 -2.45408 1.39215 -1.11245
lowerback 10.29 -1.48884 -2.69489
upperback 0.930498 -2.14179 2.91281
thorax -4.58715 -0.983313 4.87333
lowerneck -16.4978 -1.82383 -1.60298
upperneck 14.7533 -2.12604 0.174922
head 7.25859 -1.09347 0.0856133
rclavicle 1.69961e-014 1.31198e-014
rhumerus -37.7936 -30.5581 -69.2356
rradius 20.4008
rwrist 11.4491
rhand -18.0849 22.9309
rfingers 7.12502
rthumb 8.18839 -6.89039
lclavicle 1.69961e-014 1.31198e-014
lhumerus -24.5225 0.14307 82.2819
lradius 31.707
lwrist 6.2413
lhand -26.81 29.5816
lfingers 7.12502
lthumb -0.236554 59.5613
rfemur -25.7015 5.1821 25.1079
rtibia 30.0501
rfoot -1.15042 -5.80121
rtoes 10.2703
lfemur 11.0028 -3.68538 -21.4213
ltibia 39.0752
lfoot 8.13797 -16.9653
ltoes -17.5263
277
root 5.23252 17.8549 21.6253 -2.49265 1.63502 -1.40288
lowerback 10.3372 -1.53754 -2.41441
upperback 0.997627 -2.17306 2.95923
thorax -4.54849 -1.00569 4.76691
lowerneck -16.6299 -1.88966 -1.58458
upperneck 14.7726 -2.21604 0.166297
head 7.28801 -1.136 0.0685652
rclavicle 5.51627e-014 -2.94201e-014
rhumerus -37.5955 -30.8963 -69.274
rradius 20.3495
rwrist 11.7065
rhand -18.5644 23.3774
rfingers 7.12502
rthumb 7.72561 -6.46149
lclavicle 5.51627e-014 -2.94201e-014
lhumerus -24.5732 0.129626 82.4852
lradius 31.3989
lwrist 5.95415
lhand -27.2161 28.0665
lfingers 7.12502
lthumb -0.628778 58.0453
rfemur -25.1994 5.09174 25.5973
rtibia 30.4907
rfoot -1.58162 -5.85318
rtoes 12.0798
lfemur 9.69825 -3.84764 -20.8046
ltibia 41.2765
lfoot 11.1337 -18.2725
ltoes -14.5872
278
root 5.21521 17.8905 21.8307 -2.59733 1.989 -1.60671
lowerback 10.3637 -1.59512 -2.25667
upperback 1.06829 -2.23005 3.00574
thorax -4.48775 -1.03896 4.73289
lowerneck -16.6843 -1.93511 -1.61065
upperneck 14.826 -2.28543 0.247379
head 7.31672 -1.16288 0.090831
rclavicle -7.05686e-015 6.36111e-015
rhumerus -37.3895 -30.4805 -69.6512
rradius 20.6391
rwrist 11.0115
rhand -18.2307 22.5299
rfingers 7.12502
rthumb 8.04772 -7.29685
lclavicle -7.05686e-015 6.36111e-015
lhumerus -24.6597 -0.000946675 82.771
lradius 31.0969
lwrist 5.58535
lhand -27.191 26.7036
lfingers 7.12502
lthumb -0.604548 56.6825
rfemur -24.3473 4.8247 26.0023
rtibia 30.5636
rfoot -2.21957 -5.74332
rtoes 12.7457
lfemur 8.32886 -4.15193 -20.3316
ltibia 43.6335
lfoot 13.6927 -19.699
ltoes -11.49
279
root 5.19496 17.9185 22.0137 -2.53195 2.08561 -2.12751
lowerback 10.4102 -1.59208 -1.77456
upperback 1.0122 -2.16437 3.11745
thorax -4.59253 -1.01108 4.57182
lowerneck -16.7556 -1.98922 -1.68592
upperneck 15.1032 -2.36182 0.36259
head 7.42313 -1.19281 0.13012
rclavicle -4.70126e-014 1.66979e-014
rhumerus -37.2342 -29.4076 -70.4045
rradius 21.1533
rwrist 9.62749
rhand -18.2071 21.9327
rfingers 7.12502
rthumb 8.07042 -7.8932
lclavicle -4.70126e-014 1.66979e-014
lhumerus -24.8411 -0.25019 83.0126
lradius 30.9043
lwrist 5.35478
lhand -27.0778 26.0412
lfingers 7.12502
lthumb -0.495196 56.0204
rfemur -23.7351 4.96194 26.7371
rtibia 30.6038
rfoot -2.71818 -6.09947
rtoes 12.3893
lfemur 6.60611 -4.27184 -19.4745
ltibia 45.9771
lfoot 16.679 -20.9387
ltoes -8.95667
280
root 5.17817 17.9387 22.198 -2.56763 1.93546 -2.72799
lowerback 10.478 -1.55473 -1.23197
upperback 1.00842 -2.0451 3.24611
thorax -4.65958 -0.959721 4.38616
lowerneck -16.9095 -1.93157 -1.40511
upperneck 15.4491 -2.29148 0.038403
head 7.55534 -1.17405 -0.0175288
rclavicle 1.30701e-014 -4.37326e-015
rhumerus -36.9879 -28.8017 -70.8874
rradius 21.224
rwrist 8.78052
rhand -18.615 23.1112
rfingers 7.12502
rthumb 7.67672 -6.72945
lclavicle 1.30701e-014 -4.37326e-015
lhumerus -24.97 -0.507711 83.2376
lradius 30.5889
lwrist 5.12469
lhand -27.4423 25.7442
lfingers 7.12502
lthumb -0.847261 55.7222
rfemur -23.0237 5.08546 27.604
rtibia 30.6675
rfoot -3.2607 -6.27948
rtoes 11.6823
lfemur 5.03403 -4.18009 -18.5328
ltibia 48.2787
lfoot 20.6445 -21.4091
ltoes -2.67288
281
root 5.17188 17.9608 22.4012 -2.81865 1.82734 -2.80815
lowerback 10.4863 -1.48092 -1.05111
upperback 1.14136 -1.93182 3.17403
thorax -4.54278 -0.911214 4.1879
lowerneck -16.9928 -1.93148 -1.17303
upperneck 15.6166 -2.29934 -0.223439
head 7.61892 -1.18953 -0.144304
rclavicle 1.50082e-014 -3.57812e-015
rhumerus -36.6199 -28.2333 -71.4616
rradius 21.3002
rwrist 8.13627
rhand -18.2314 23.3876
rfingers 7.12502
rthumb 8.04701 -6.43916
lclavicle 1.50082e-014 -3.57812e-015
lhumerus -25.0454 -0.939026 83.5129
lradius 30.268
lwrist 4.8233
lhand -27.0092 25.329
lfingers 7.12502
lthumb -0.428982 55.3083
rfemur -21.9636 4.86118 27.8776
rtibia 30.6421
rfoot -4.01986 -6.03874
rtoes 11.8236
lfemur 3.93331 -4.13543 -18.312
ltibia 50.5172
lfoot 23.7809 -21.9896
ltoes 1.88713
